<svg width="24" height="24" viewBox="0 0 24 24" fill="none" xmlns="http://www.w3.org/2000/svg">
<g clip-path="url(#clip0_1_1362)">
<path fill-rule="evenodd" clip-rule="evenodd" d="M13.9607 1.67216C12.8345 0.69945 11.1652 0.69945 10.0389 1.67216L0.346487 10.0433C-0.0714351 10.4042 -0.117846 11.0354 0.242972 11.4534C0.603905 11.8713 1.23514 11.9177 1.65313 11.5569L2.99986 10.3939V19.0001C2.99986 21.2092 4.79072 23.0001 6.99986 23.0001H16.9999C19.209 23.0001 20.9999 21.2092 20.9999 19.0001V10.394L22.3465 11.5569L22.4266 11.6194C22.8417 11.9106 23.4181 11.8454 23.7566 11.4534C24.1175 11.0354 24.0711 10.4042 23.6531 10.0433L13.9607 1.67216ZM18.9999 8.6668L12.6531 3.18583C12.2778 2.86183 11.7218 2.86183 11.3465 3.18583L4.99986 8.66672V19.0001C4.99986 20.1047 5.89529 21.0001 6.99986 21.0001H16.9999C18.1044 21.0001 18.9999 20.1047 18.9999 19.0001V8.6668ZM9.99981 15.0001C9.99981 14.4478 10.4475 14.0001 10.9998 14.0001H12.9998C13.5521 14.0001 13.9998 14.4478 13.9998 15.0001V21.0001H9.99981V15.0001Z" fill="#FF5733"/>
</g>
<defs>
<clipPath id="clip0_1_1362">
<rect width="24" height="24" fill="white"/>
</clipPath>
</defs>
</svg>
